<?xml version="1.0" standalone="no"?>
<!DOCTYPE svg PUBLIC "-//W3C//DTD SVG 20010904//EN"
 "http://www.w3.org/TR/2001/REC-SVG-20010904/DTD/svg10.dtd">
<svg version="1.0" xmlns="http://www.w3.org/2000/svg"
 width="720.000000pt" height="391.000000pt" viewBox="0 0 720.000000 391.000000"
 preserveAspectRatio="xMidYMid meet">

<g transform="translate(0.000000,391.000000) scale(0.100000,-0.100000)"
fill="#000000" stroke="none">
<path d="M3632 3555 c-269 -61 -461 -302 -462 -581 0 -69 29 -193 59 -253 12
-22 21 -45 21 -50 0 -5 -30 -34 -66 -64 -59 -49 -70 -54 -102 -50 -36 4 -48
-5 -417 -312 -444 -371 -455 -380 -455 -405 0 -10 27 -53 60 -94 82 -103 84
-103 241 25 68 56 130 106 137 112 9 7 12 -55 12 -307 l0 -316 -355 0 -356 0
3 -77 3 -78 351 -3 c341 -2 352 -3 357 -22 5 -19 14 -20 146 -20 l141 0 0 533
1 532 139 119 c144 122 156 138 131 185 -8 14 1 27 47 67 80 70 77 70 125 30
24 -19 72 -49 108 -65 289 -134 634 -18 774 261 162 325 6 697 -345 820 -73
26 -216 32 -298 13z m259 -125 c290 -89 421 -438 260 -689 -201 -313 -661
-286 -819 48 -32 67 -37 87 -40 171 -3 78 0 107 17 158 85 252 339 388 582
312z m-936 -1126 c16 -24 16 -27 -2 -46 -25 -28 -390 -328 -399 -328 -13 0
-44 32 -44 45 0 7 30 38 68 68 37 31 128 107 202 171 74 63 140 115 146 115 7
1 19 -11 29 -25z"/>
<path d="M3638 3305 c-131 -48 -215 -166 -221 -310 -2 -71 11 -97 41 -79 13 8
18 30 23 85 3 47 13 89 27 115 43 83 144 144 238 144 44 0 70 19 60 45 -7 19
-115 19 -168 0z"/>
<path d="M4023 3099 c-7 -7 -8 -21 -2 -42 22 -77 -2 -181 -57 -245 -18 -22
-60 -51 -93 -68 -42 -19 -61 -34 -61 -46 0 -80 182 27 245 143 49 90 45 257
-5 267 -9 1 -21 -3 -27 -9z"/>
<path d="M4624 2156 c-215 -49 -342 -216 -304 -399 28 -139 116 -200 380 -266
85 -21 172 -49 193 -61 68 -40 62 -109 -13 -148 -41 -21 -55 -23 -150 -19
-113 5 -208 31 -293 82 -25 14 -47 22 -50 18 -6 -10 -87 -204 -87 -209 0 -11
147 -69 230 -91 78 -21 116 -25 220 -25 235 1 375 65 447 205 22 43 27 65 27
132 1 176 -88 261 -335 321 -207 49 -231 57 -260 81 -61 51 -28 127 66 153 69
19 204 8 295 -24 115 -41 106 -46 150 74 22 57 38 105 37 106 -9 8 -95 40
-152 56 -92 26 -314 34 -401 14z"/>
<path d="M3208 2153 c-17 -4 -18 -39 -18 -544 l0 -539 151 0 150 0 -2 48 c-2
26 -2 90 -1 142 l2 95 98 -3 98 -3 94 -140 94 -139 158 0 c125 0 158 3 152 13
-7 11 -82 116 -186 260 -20 29 -37 55 -38 58 0 3 22 20 49 38 58 37 102 89
133 157 18 40 22 68 22 154 1 99 -1 109 -32 172 -52 106 -151 181 -280 212
-56 14 -605 30 -644 19z m582 -255 c57 -30 82 -65 88 -127 6 -69 -23 -129 -81
-161 -37 -22 -57 -25 -174 -28 l-133 -4 0 171 0 171 128 0 c113 0 133 -3 172
-22z"/>
<path d="M2085 790 c-66 -14 -95 -44 -95 -98 0 -56 35 -83 148 -112 58 -15 78
-53 43 -81 -30 -25 -96 -25 -144 0 -37 19 -37 19 -48 -1 -13 -24 7 -42 61 -58
106 -31 200 13 200 92 0 52 -32 80 -113 103 -67 19 -97 38 -97 65 0 41 64 59
130 36 45 -15 59 -10 60 20 0 22 -96 44 -145 34z"/>
<path d="M2637 783 c-4 -3 -7 -82 -7 -174 0 -197 -16 -178 150 -176 101 2 105
3 108 25 3 22 1 22 -96 22 -111 0 -113 1 -104 73 l4 37 84 0 c83 0 84 0 84 25
0 25 -1 25 -85 25 l-85 0 0 50 0 50 95 0 c95 0 95 0 95 25 l0 25 -118 0 c-65
0 -122 -3 -125 -7z"/>
<path d="M3364 753 c-9 -21 -42 -98 -75 -170 -32 -73 -59 -137 -59 -143 0 -5
11 -10 24 -10 19 0 28 9 43 45 l18 45 93 0 92 0 16 -39 c11 -27 23 -41 41 -46
14 -3 27 -4 29 -2 4 4 -47 123 -120 280 -31 67 -39 77 -61 77 -21 0 -29 -8
-41 -37z m81 -109 c19 -42 35 -78 35 -80 0 -2 -31 -4 -70 -4 -38 0 -70 3 -70
8 0 20 56 152 65 152 2 0 20 -34 40 -76z"/>
<path d="M3940 610 l0 -180 24 0 c23 0 25 4 28 53 l3 52 55 2 55 3 35 -53 c26
-38 42 -53 63 -55 15 -2 27 0 27 3 0 4 -16 29 -35 55 -19 26 -35 51 -35 55 0
4 11 16 25 27 31 24 46 76 35 123 -16 72 -61 95 -189 95 l-91 0 0 -180z m209
104 c27 -34 27 -78 1 -104 -16 -16 -33 -20 -90 -20 l-70 0 0 75 0 75 69 0 c63
0 71 -2 90 -26z"/>
<path d="M4681 773 c-18 -9 -46 -34 -61 -55 -88 -121 -4 -288 145 -288 44 0
112 27 133 53 11 13 10 17 -6 26 -15 8 -29 5 -58 -9 -46 -24 -73 -25 -119 -6
-51 22 -77 69 -72 130 4 42 10 55 41 83 30 28 43 33 85 33 33 0 56 -6 73 -20
22 -17 28 -17 44 -6 16 12 16 16 4 31 -38 46 -144 60 -209 28z"/>
<path d="M5270 610 l0 -181 23 3 c20 3 22 9 25 81 l3 77 94 0 94 0 3 -77 c3
-77 3 -78 31 -81 l27 -3 0 181 0 181 -27 -3 c-27 -3 -28 -5 -31 -75 l-3 -73
-94 0 -94 0 -3 73 c-3 66 -5 72 -25 75 l-23 3 0 -181z"/>
</g>
</svg>
